<svg width="240" height="80" viewBox="0 0 240 80" fill="none" xmlns="http://www.w3.org/2000/svg">
<path d="M120 80C186.274 80 240 62.0914 240 40C240 17.9086 186.274 0 120 0C53.7258 0 0 17.9086 0 40C0 62.0914 53.7258 80 120 80Z" fill="#0EE973"/>
<path d="M49.9174 37V7.90912H60.0878C62.1143 7.90912 63.7857 8.25952 65.102 8.96022C66.4183 9.65152 67.3984 10.5843 68.0424 11.7585C68.6863 12.9233 69.0083 14.2159 69.0083 15.6364C69.0083 16.8864 68.7857 17.9186 68.3407 18.733C67.905 19.5473 67.3274 20.1913 66.6077 20.6648C65.8975 21.1383 65.1257 21.4886 64.2924 21.7159V22C65.1825 22.0568 66.0774 22.3693 66.977 22.9375C67.8766 23.5057 68.6295 24.3201 69.2355 25.3807C69.8416 26.4413 70.1446 27.7386 70.1446 29.2727C70.1446 30.7311 69.8132 32.0426 69.1503 33.2074C68.4874 34.3722 67.441 35.2955 66.0111 35.9773C64.5812 36.6591 62.7204 37 60.4287 37H49.9174ZM53.4401 33.875H60.4287C62.7299 33.875 64.3634 33.4299 65.3293 32.5398C66.3047 31.6402 66.7924 30.5511 66.7924 29.2727C66.7924 28.2879 66.5414 27.3788 66.0395 26.5455C65.5376 25.7027 64.8227 25.0303 63.8946 24.5284C62.9666 24.017 61.8681 23.7614 60.5992 23.7614H53.4401V33.875ZM53.4401 20.6932H59.9742C61.0348 20.6932 61.9912 20.4848 62.8435 20.0682C63.7052 19.6515 64.3871 19.0644 64.8889 18.3068C65.4003 17.5492 65.656 16.6591 65.656 15.6364C65.656 14.358 65.2109 13.2737 64.3208 12.3835C63.4306 11.4839 62.0196 11.0341 60.0878 11.0341H53.4401V20.6932ZM81.8989 37.5114C80.5163 37.5114 79.2616 37.2509 78.1347 36.7301C77.0078 36.1998 76.1129 35.4375 75.45 34.4432C74.7872 33.4394 74.4557 32.2273 74.4557 30.8068C74.4557 29.5568 74.7019 28.5436 75.1943 27.767C75.6868 26.9811 76.3449 26.3655 77.1688 25.9205C77.9926 25.4754 78.9017 25.1439 79.8961 24.9261C80.8998 24.6989 81.9084 24.5189 82.9216 24.3864C84.2474 24.2159 85.3222 24.0881 86.1461 24.0028C86.9794 23.9081 87.5854 23.7519 87.9642 23.5341C88.3525 23.3163 88.5466 22.9375 88.5466 22.3977V22.2841C88.5466 20.8826 88.1631 19.7936 87.3961 19.017C86.6385 18.2405 85.4879 17.8523 83.9443 17.8523C82.344 17.8523 81.0892 18.2027 80.1801 18.9034C79.2711 19.6042 78.6318 20.3523 78.2625 21.1477L75.0807 20.0114C75.6489 18.6856 76.4065 17.6534 77.3534 16.9148C78.3099 16.1667 79.3515 15.6458 80.4784 15.3523C81.6148 15.0492 82.7322 14.8977 83.8307 14.8977C84.5315 14.8977 85.3364 14.983 86.2455 15.1534C87.164 15.3144 88.0495 15.6506 88.9017 16.1619C89.7635 16.6733 90.4784 17.4451 91.0466 18.4773C91.6148 19.5095 91.8989 20.892 91.8989 22.625V37H88.5466V34.0455H88.3762C88.1489 34.5189 87.7701 35.0256 87.2398 35.5653C86.7095 36.1051 86.004 36.5644 85.1233 36.9432C84.2426 37.322 83.1678 37.5114 81.8989 37.5114ZM82.4103 34.5C83.736 34.5 84.8534 34.2396 85.7625 33.7188C86.6811 33.1979 87.3724 32.5256 87.8364 31.7017C88.3099 30.8778 88.5466 30.0114 88.5466 29.1023V26.0341C88.4046 26.2045 88.0921 26.3608 87.6091 26.5028C87.1356 26.6354 86.5864 26.7538 85.9614 26.858C85.3459 26.9527 84.7445 27.0379 84.1574 27.1136C83.5798 27.1799 83.111 27.2367 82.7512 27.2841C81.88 27.3977 81.0656 27.5824 80.308 27.8381C79.5599 28.0843 78.9538 28.4583 78.4898 28.9602C78.0353 29.4527 77.808 30.125 77.808 30.9773C77.808 32.142 78.2389 33.0227 79.1006 33.6193C79.9718 34.2064 81.075 34.5 82.4103 34.5ZM98.0175 15.1818H101.37V33.875H109.608V15.1818H112.961V33.875H121.199V15.1818H124.551V37H98.0175V15.1818Z" fill="#CF2323"/>
<path d="M70.1204 40.9091H74.3249L84.2113 65.0568H84.5522L94.4386 40.9091H98.6431V70H95.3477V47.8977H95.0636L85.9727 70H82.7908L73.6999 47.8977H73.4158V70H70.1204V40.9091ZM111.672 70.5114C110.29 70.5114 109.035 70.2509 107.908 69.7301C106.781 69.1998 105.886 68.4375 105.223 67.4432C104.56 66.4394 104.229 65.2273 104.229 63.8068C104.229 62.5568 104.475 61.5436 104.968 60.767C105.46 59.9811 106.118 59.3655 106.942 58.9205C107.766 58.4754 108.675 58.1439 109.669 57.9261C110.673 57.6989 111.682 57.5189 112.695 57.3864C114.021 57.2159 115.096 57.0881 115.919 57.0028C116.753 56.9081 117.359 56.7519 117.738 56.5341C118.126 56.3163 118.32 55.9375 118.32 55.3977V55.2841C118.32 53.8826 117.936 52.7936 117.169 52.017C116.412 51.2405 115.261 50.8523 113.718 50.8523C112.117 50.8523 110.863 51.2027 109.953 51.9034C109.044 52.6042 108.405 53.3523 108.036 54.1477L104.854 53.0114C105.422 51.6856 106.18 50.6534 107.127 49.9148C108.083 49.1667 109.125 48.6458 110.252 48.3523C111.388 48.0492 112.506 47.8977 113.604 47.8977C114.305 47.8977 115.11 47.983 116.019 48.1534C116.937 48.3144 117.823 48.6506 118.675 49.1619C119.537 49.6733 120.252 50.4451 120.82 51.4773C121.388 52.5095 121.672 53.892 121.672 55.625V70H118.32V67.0455H118.15C117.922 67.5189 117.543 68.0256 117.013 68.5653C116.483 69.1051 115.777 69.5644 114.897 69.9432C114.016 70.322 112.941 70.5114 111.672 70.5114ZM112.184 67.5C113.509 67.5 114.627 67.2396 115.536 66.7188C116.454 66.1979 117.146 65.5256 117.61 64.7017C118.083 63.8778 118.32 63.0114 118.32 62.1023V59.0341C118.178 59.2045 117.865 59.3608 117.382 59.5028C116.909 59.6354 116.36 59.7538 115.735 59.858C115.119 59.9527 114.518 60.0379 113.931 60.1136C113.353 60.1799 112.884 60.2367 112.525 60.2841C111.653 60.3977 110.839 60.5824 110.081 60.8381C109.333 61.0843 108.727 61.4583 108.263 61.9602C107.809 62.4527 107.581 63.125 107.581 63.9773C107.581 65.142 108.012 66.0227 108.874 66.6193C109.745 67.2064 110.848 67.5 112.184 67.5ZM141.257 48.1818V51.3068H131.143V70H127.791V48.1818H141.257ZM151.438 70.5114C150.055 70.5114 148.801 70.2509 147.674 69.7301C146.547 69.1998 145.652 68.4375 144.989 67.4432C144.326 66.4394 143.995 65.2273 143.995 63.8068C143.995 62.5568 144.241 61.5436 144.733 60.767C145.226 59.9811 145.884 59.3655 146.708 58.9205C147.532 58.4754 148.441 58.1439 149.435 57.9261C150.439 57.6989 151.447 57.5189 152.461 57.3864C153.786 57.2159 154.861 57.0881 155.685 57.0028C156.518 56.9081 157.124 56.7519 157.503 56.5341C157.891 56.3163 158.086 55.9375 158.086 55.3977V55.2841C158.086 53.8826 157.702 52.7936 156.935 52.017C156.177 51.2405 155.027 50.8523 153.483 50.8523C151.883 50.8523 150.628 51.2027 149.719 51.9034C148.81 52.6042 148.171 53.3523 147.801 54.1477L144.62 53.0114C145.188 51.6856 145.945 50.6534 146.892 49.9148C147.849 49.1667 148.891 48.6458 150.017 48.3523C151.154 48.0492 152.271 47.8977 153.37 47.8977C154.07 47.8977 154.875 47.983 155.784 48.1534C156.703 48.3144 157.588 48.6506 158.441 49.1619C159.302 49.6733 160.017 50.4451 160.586 51.4773C161.154 52.5095 161.438 53.892 161.438 55.625V70H158.086V67.0455H157.915C157.688 67.5189 157.309 68.0256 156.779 68.5653C156.248 69.1051 155.543 69.5644 154.662 69.9432C153.782 70.322 152.707 70.5114 151.438 70.5114ZM151.949 67.5C153.275 67.5 154.392 67.2396 155.301 66.7188C156.22 66.1979 156.911 65.5256 157.375 64.7017C157.849 63.8778 158.086 63.0114 158.086 62.1023V59.0341C157.944 59.2045 157.631 59.3608 157.148 59.5028C156.675 59.6354 156.125 59.7538 155.5 59.858C154.885 59.9527 154.283 60.0379 153.696 60.1136C153.119 60.1799 152.65 60.2367 152.29 60.2841C151.419 60.3977 150.605 60.5824 149.847 60.8381C149.099 61.0843 148.493 61.4583 148.029 61.9602C147.574 62.4527 147.347 63.125 147.347 63.9773C147.347 65.142 147.778 66.0227 148.64 66.6193C149.511 67.2064 150.614 67.5 151.949 67.5ZM166.193 64.4318H169.772C169.848 65.4167 170.293 66.1648 171.108 66.6761C171.931 67.1875 173.002 67.4432 174.318 67.4432C175.663 67.4432 176.813 67.1686 177.77 66.6193C178.726 66.0606 179.204 65.161 179.204 63.9205C179.204 63.1913 179.024 62.5568 178.664 62.017C178.305 61.4678 177.798 61.0417 177.145 60.7386C176.491 60.4356 175.719 60.2841 174.829 60.2841H171.079V57.2727H174.829C176.164 57.2727 177.149 56.9697 177.784 56.3636C178.428 55.7576 178.75 55 178.75 54.0909C178.75 53.1155 178.404 52.3343 177.713 51.7472C177.021 51.1506 176.041 50.8523 174.772 50.8523C173.494 50.8523 172.429 51.1411 171.576 51.7188C170.724 52.2869 170.274 53.0208 170.227 53.9205H166.704C166.742 52.7462 167.102 51.7093 167.784 50.8097C168.466 49.9006 169.394 49.1903 170.568 48.679C171.742 48.1581 173.087 47.8977 174.602 47.8977C176.136 47.8977 177.467 48.1676 178.593 48.7074C179.73 49.2377 180.606 49.9621 181.221 50.8807C181.846 51.7898 182.159 52.822 182.159 53.9773C182.159 55.2083 181.813 56.2027 181.122 56.9602C180.431 57.7178 179.564 58.2576 178.522 58.5795V58.8068C179.346 58.8636 180.061 59.1288 180.667 59.6023C181.283 60.0663 181.761 60.6771 182.102 61.4347C182.443 62.1828 182.613 63.0114 182.613 63.9205C182.613 65.2462 182.258 66.4015 181.548 67.3864C180.838 68.3617 179.862 69.1193 178.622 69.6591C177.381 70.1894 175.966 70.4545 174.375 70.4545C172.831 70.4545 171.449 70.2036 170.227 69.7017C169.005 69.1903 168.035 68.4848 167.315 67.5852C166.605 66.6761 166.231 65.625 166.193 64.4318ZM190.674 65.0568L201.186 48.1818H205.049V70H201.697V53.125L191.243 70H187.322V48.1818H190.674V65.0568ZM225.792 57.5568V60.6818H213.746V57.5568H225.792ZM214.542 48.1818V70H211.189V48.1818H214.542ZM228.348 48.1818V70H224.996V48.1818H228.348Z" fill="#1A81DF"/>
</svg>
